<svg id="visual" viewBox="0 0 900 600" width="900" height="600" xmlns="http://www.w3.org/2000/svg" xmlns:xlink="http://www.w3.org/1999/xlink" version="1.1"><rect x="0" y="0" width="900" height="600" fill="#fff"></rect><path d="M0 154L21.5 166.7C43 179.3 86 204.7 128.8 225.3C171.7 246 214.3 262 257.2 252.7C300 243.3 343 208.7 385.8 203.5C428.7 198.3 471.3 222.7 514.2 222.5C557 222.3 600 197.7 642.8 174.2C685.7 150.7 728.3 128.3 771.2 141C814 153.7 857 201.3 878.5 225.2L900 249L900 601L878.5 601C857 601 814 601 771.2 601C728.3 601 685.7 601 642.8 601C600 601 557 601 514.2 601C471.3 601 428.7 601 385.8 601C343 601 300 601 257.2 601C214.3 601 171.7 601 128.8 601C86 601 43 601 21.5 601L0 601Z" fill="#b18ffc"></path><path d="M0 223L21.5 221.3C43 219.7 86 216.3 128.8 216.5C171.7 216.7 214.3 220.3 257.2 232.5C300 244.7 343 265.3 385.8 282.8C428.7 300.3 471.3 314.7 514.2 310.2C557 305.7 600 282.3 642.8 263C685.7 243.7 728.3 228.3 771.2 235C814 241.7 857 270.3 878.5 284.7L900 299L900 601L878.5 601C857 601 814 601 771.2 601C728.3 601 685.7 601 642.8 601C600 601 557 601 514.2 601C471.3 601 428.7 601 385.8 601C343 601 300 601 257.2 601C214.3 601 171.7 601 128.8 601C86 601 43 601 21.5 601L0 601Z" fill="#9e76f9"></path><path d="M0 327L21.5 328C43 329 86 331 128.8 331.3C171.7 331.7 214.3 330.3 257.2 336.3C300 342.3 343 355.7 385.8 361.5C428.7 367.3 471.3 365.7 514.2 352.3C557 339 600 314 642.8 323.2C685.7 332.3 728.3 375.7 771.2 385.8C814 396 857 373 878.5 361.5L900 350L900 601L878.5 601C857 601 814 601 771.2 601C728.3 601 685.7 601 642.8 601C600 601 557 601 514.2 601C471.3 601 428.7 601 385.8 601C343 601 300 601 257.2 601C214.3 601 171.7 601 128.8 601C86 601 43 601 21.5 601L0 601Z" fill="#8a5cf6"></path><path d="M0 458L21.5 453C43 448 86 438 128.8 435.2C171.7 432.3 214.3 436.7 257.2 430.7C300 424.7 343 408.3 385.8 408.3C428.7 408.3 471.3 424.7 514.2 439.8C557 455 600 469 642.8 466.7C685.7 464.3 728.3 445.7 771.2 438C814 430.3 857 433.7 878.5 435.3L900 437L900 601L878.5 601C857 601 814 601 771.2 601C728.3 601 685.7 601 642.8 601C600 601 557 601 514.2 601C471.3 601 428.7 601 385.8 601C343 601 300 601 257.2 601C214.3 601 171.7 601 128.8 601C86 601 43 601 21.5 601L0 601Z" fill="#774cd8"></path><path d="M0 523L21.5 527C43 531 86 539 128.8 534.8C171.7 530.7 214.3 514.3 257.2 514.7C300 515 343 532 385.8 524C428.7 516 471.3 483 514.2 480C557 477 600 504 642.8 510C685.7 516 728.3 501 771.2 494.7C814 488.3 857 490.7 878.5 491.8L900 493L900 601L878.5 601C857 601 814 601 771.2 601C728.3 601 685.7 601 642.8 601C600 601 557 601 514.2 601C471.3 601 428.7 601 385.8 601C343 601 300 601 257.2 601C214.3 601 171.7 601 128.8 601C86 601 43 601 21.5 601L0 601Z" fill="#643dbb"></path></svg>